<svg width="39" height="47" viewBox="0 0 39 47" fill="none" xmlns="http://www.w3.org/2000/svg">
<path d="M36.375 19.75C36.375 32.875 19.5 44.125 19.5 44.125C19.5 44.125 2.625 32.875 2.625 19.75C2.625 15.2745 4.4029 10.9822 7.56757 7.81757C10.7322 4.6529 15.0245 2.875 19.5 2.875C23.9755 2.875 28.2677 4.6529 31.4324 7.81757C34.5971 10.9822 36.375 15.2745 36.375 19.75Z" stroke="#276BF2" stroke-width="4" stroke-linecap="round" stroke-linejoin="round"/>
<path d="M19.5 25.375C22.6066 25.375 25.125 22.8566 25.125 19.75C25.125 16.6434 22.6066 14.125 19.5 14.125C16.3934 14.125 13.875 16.6434 13.875 19.75C13.875 22.8566 16.3934 25.375 19.5 25.375Z" stroke="#276BF2" stroke-width="4" stroke-linecap="round" stroke-linejoin="round"/>
</svg>
