<?xml version="1.0" encoding="UTF-8"?>
<svg id="Layer_1" xmlns="http://www.w3.org/2000/svg" version="1.1" viewBox="0 0 512 512">
  <!-- Generator: Adobe Illustrator 29.3.1, SVG Export Plug-In . SVG Version: 2.1.0 Build 151)  -->
  <defs>
    <style>
      .st0 {
        fill: #276bf2;
      }
    </style>
  </defs>
  <path class="st0" d="M512,321.3c0-17.9-3.7-35.6-11-52l-59.2-133.3c-13.7-30.8-44.3-50.6-78-50.7h-65.1l-16.1-64.6c-3.6-14.6-18.5-23.6-33.1-19.9-9.8,2.4-17.5,10.1-19.9,19.9l-16.1,64.6H64C28.7,85.3,0,114,0,149.3v277.3h43.5c-.5,3.5-.8,7.1-.9,10.7,0,41.2,33.4,74.7,74.7,74.7s74.7-33.4,74.7-74.7c0-3.6-.3-7.1-.9-10.7h129.7c-.5,3.5-.8,7.1-.9,10.7,0,41.2,33.4,74.7,74.7,74.7s74.7-33.4,74.7-74.7c0-3.6-.3-7.1-.9-10.7h43.5v-105.3ZM402.7,153.3l36.1,81.3h-97.5v-106.7h22.4c16.9,0,32.1,9.9,39,25.3ZM149.3,437.3c0,17.7-14.3,32-32,32s-32-14.3-32-32c0-3.6.7-7.3,2-10.7h60c1.3,3.4,2,7,2,10.7ZM426.7,437.3c0,17.7-14.3,32-32,32s-32-14.3-32-32c0-3.6.7-7.3,2-10.7h60c1.3,3.4,2,7,2,10.7ZM469.3,384H42.7v-234.7c0-11.8,9.6-21.3,21.3-21.3h234.7v149.3h159.2l4.1,9.3c4.9,10.9,7.4,22.7,7.4,34.7v62.7ZM192,234.7h42.7v42.7h-42.7v42.7h-42.7v-42.7h-42.7v-42.7h42.7v-42.7h42.7v42.7Z"/>
</svg>