<?xml version="1.0" encoding="UTF-8"?>
<svg id="Outline" xmlns="http://www.w3.org/2000/svg" version="1.1" viewBox="0 0 512 512">
  <!-- Generator: Adobe Illustrator 29.3.1, SVG Export Plug-In . SVG Version: 2.1.0 Build 151)  -->
  <defs>
    <style>
      .st0 {
        fill: #276bf2;
      }
    </style>
  </defs>
  <path class="st0" d="M512,239.9C503.3,98.7,381.7-8.8,240.4,0,99.2,8.7-8.3,130.3.5,271.6c8.4,135.2,120.5,240.5,255.9,240.4h149c58.9,0,106.6-47.8,106.7-106.7v-165.4ZM469.3,405.3c0,35.3-28.7,64-64,64h-149c-60.9,0-118.9-26-159.5-71.3-40.8-45.3-60.1-106.1-52.8-166.7,11.6-97.2,87.6-174.1,184.7-186.9,9.2-1.2,18.5-1.7,27.7-1.7,49.7-.1,97.9,17.2,136.1,49.1,45.1,37.5,72.8,91.8,76.8,150.2v163.4Z"/>
  <path class="st0" d="M170.7,192h85.3c11.8,0,21.3-9.6,21.3-21.3s-9.6-21.3-21.3-21.3h-85.3c-11.8,0-21.3,9.6-21.3,21.3s9.6,21.3,21.3,21.3Z"/>
  <path class="st0" d="M341.3,234.7h-170.7c-11.8,0-21.3,9.6-21.3,21.3s9.6,21.3,21.3,21.3h170.7c11.8,0,21.3-9.6,21.3-21.3s-9.6-21.3-21.3-21.3Z"/>
  <path class="st0" d="M341.3,320h-170.7c-11.8,0-21.3,9.6-21.3,21.3s9.6,21.3,21.3,21.3h170.7c11.8,0,21.3-9.6,21.3-21.3s-9.6-21.3-21.3-21.3Z"/>
</svg>