<svg width="40" height="40" viewBox="0 0 40 40" fill="none" xmlns="http://www.w3.org/2000/svg">
<g clip-path="url(#clip0_31_531)">
<path d="M36.6667 9.54018V3.33351C36.6667 2.41351 35.9217 1.66684 35 1.66684C34.0783 1.66684 33.3333 2.41351 33.3333 3.33351V7.27684L24.6617 1.42518C21.83 -0.484824 18.17 -0.484824 15.3383 1.42518L3.67167 9.29851C1.37333 10.8502 0 13.4318 0 16.2068V31.6668C0 36.2618 3.73833 40.0002 8.33333 40.0002H13.3333C14.255 40.0002 15 39.2535 15 38.3335V25.0002C15 24.0818 15.7467 23.3335 16.6667 23.3335H23.3333C24.2533 23.3335 25 24.0818 25 25.0002V38.3335C25 39.2535 25.745 40.0002 26.6667 40.0002H31.6667C36.2617 40.0002 40 36.2618 40 31.6668V16.2068C40 13.5718 38.76 11.1102 36.6667 9.54018ZM36.6667 31.6668C36.6667 34.4235 34.4233 36.6668 31.6667 36.6668H28.3333V25.0002C28.3333 22.2435 26.09 20.0002 23.3333 20.0002H16.6667C13.91 20.0002 11.6667 22.2435 11.6667 25.0002V36.6668H8.33333C5.57667 36.6668 3.33333 34.4235 3.33333 31.6668V16.2068C3.33333 14.5418 4.15667 12.9918 5.53667 12.0618L17.2033 4.18851C18.9033 3.04184 21.0967 3.04184 22.795 4.18851L34.4617 12.0618C35.8417 12.9918 36.665 14.5418 36.665 16.2068L36.6667 31.6668Z" fill="#276BF2"/>
</g>
<defs>
<clipPath id="clip0_31_531">
<rect width="40" height="40" fill="white"/>
</clipPath>
</defs>
</svg>
