<?xml version="1.0" encoding="UTF-8"?>
<svg id="Layer_1" xmlns="http://www.w3.org/2000/svg" version="1.1" viewBox="0 0 512 512">
  <!-- Generator: Adobe Illustrator 29.3.1, SVG Export Plug-In . SVG Version: 2.1.0 Build 151)  -->
  <defs>
    <style>
      .st0 {
        fill: #276bf2;
      }
    </style>
  </defs>
  <path class="st0" d="M469.3,122.1V42.7c0-11.8-9.5-21.3-21.3-21.3s-21.3,9.6-21.3,21.3v50.5l-111-74.9c-36.2-24.4-83.1-24.4-119.3,0L47,119C17.6,138.9,0,171.9,0,207.4v197.9c0,58.8,47.9,106.7,106.7,106.7h64c11.8,0,21.3-9.6,21.3-21.3v-170.7c0-11.8,9.6-21.3,21.3-21.3h85.3c11.8,0,21.3,9.6,21.3,21.3v170.7c0,11.8,9.5,21.3,21.3,21.3h64c58.8,0,106.7-47.9,106.7-106.7v-197.9c0-33.7-15.9-65.2-42.7-85.3ZM469.3,405.3c0,35.3-28.7,64-64,64h-42.7v-149.3c0-35.3-28.7-64-64-64h-85.3c-35.3,0-64,28.7-64,64v149.3h-42.7c-35.3,0-64-28.7-64-64v-197.9c0-21.3,10.5-41.2,28.2-53.1L220.2,53.6c21.8-14.7,49.8-14.7,71.6,0l149.3,100.8c17.7,11.9,28.2,31.7,28.2,53.1v197.9h0Z"/>
</svg>