<?xml version="1.0" encoding="UTF-8"?>
<svg id="Layer_1" xmlns="http://www.w3.org/2000/svg" version="1.1" viewBox="0 0 512 512">
  <!-- Generator: Adobe Illustrator 29.3.1, SVG Export Plug-In . SVG Version: 2.1.0 Build 151)  -->
  <defs>
    <style>
      .st0 {
        fill: #276bf2;
      }
    </style>
  </defs>
  <path class="st0" d="M489.4,44.1c-14.7-14.7-32.7-22.5-52.1-22.5h0c-15.8,0-40.1,5.5-65.9,31.3L22.1,398.9c-7.1,9-14.4,18.5-17.9,25.9-6.6,14.2-5.4,30.6,3.2,43.9,8.9,13.7,23.8,21.9,40,21.9,5.1,0,10,0,13.9-.3,88.7-3.5,166.7-34.7,219.6-87.8l44.9-45.7,18,18.1c10,10,25.6,11.9,37.8,4.5,12.2-7.4,17.6-21.4,13.4-34.9-15-48.3-16.4-78.8,16.9-112.2l77.3-78.9c30.1-30.2,30.1-79.3,0-109.4h0ZM250.6,372.6c-44.5,44.7-114.1,72.1-191,75.2-3.4.1-7.6.2-12.1.2-2.5-.8-3.9-1.8-4.2-2.3-1-1.5-.6-2.5-.4-2.9,1.2-2.4,5.4-8.2,12.6-17.3.7-.9,170.3-168.9,170.3-168.9l69.9,70.2-45.2,46h0ZM459.1,123.5l-77.3,78.8c-37.7,37.7-43,76.3-37.7,112.3l-87.9-88.2,145.2-143.4c12.3-12.4,24.7-18.9,35.8-18.9h0c8,0,15.3,3.3,21.9,10,13.5,13.6,13.5,35.6-.1,49.3h0Z"/>
</svg>