<?xml version="1.0" encoding="UTF-8"?>
<svg id="Layer_1" xmlns="http://www.w3.org/2000/svg" version="1.1" viewBox="0 0 24 24">
  <!-- Generator: Adobe Illustrator 29.3.1, SVG Export Plug-In . SVG Version: 2.1.0 Build 151)  -->
  <defs>
    <style>
      .st0 {
        fill: #276bf2;
      }
    </style>
  </defs>
  <path class="st0" d="M22.3,10.7c.2.2.5.3.7.3s.5,0,.7-.3c.4-.4.4-1,0-1.4L14.7.3c-.4-.4-1-.4-1.4,0s-.4,1,0,1.4l1,1L1.5,15.5c-.9.9-1.5,2.2-1.5,3.5s.5,2.6,1.5,3.5c.9.9,2.2,1.5,3.5,1.5s2.6-.5,3.5-1.5l12.8-12.8,1,1h0ZM7.1,21.1c-1.1,1.1-3.1,1.1-4.2,0-1.2-1.2-1.2-3.1,0-4.2l7.8-7.8,4.2,4.2-7.8,7.8h0ZM16.3,11.9l-4.2-4.2,3.6-3.6,4.2,4.2-3.6,3.6ZM21.6,15.6c-.9-.8-2.2-.8-3.1,0,0,0-1.3,1.5-1.3,1.5-.8.8-1.2,1.8-1.2,2.8s.4,2.1,1.2,2.8c.8.8,1.8,1.2,2.8,1.2s2.1-.4,2.8-1.2c.8-.8,1.2-1.8,1.2-2.8s-.4-2.1-1.1-2.8c0,0-1.3-1.6-1.3-1.6h0ZM21.4,21.4c-.8.8-2.1.8-2.8,0s-.6-.9-.6-1.4.2-1,.6-1.5l1.2-1.5c0,0,.2,0,.3,0l1.3,1.5c.4.4.6.9.6,1.4s-.2,1-.6,1.4Z"/>
</svg>