<svg width="44" height="38" viewBox="0 0 44 38" fill="none" xmlns="http://www.w3.org/2000/svg">
<path d="M18.3838 3.80514L2.50254 30.3176C2.1751 30.8847 2.00185 31.5276 2.00001 32.1824C1.99818 32.8372 2.16783 33.481 2.49209 34.0499C2.81634 34.6187 3.2839 35.0928 3.84824 35.4249C4.41258 35.7569 5.05403 35.9355 5.70879 35.9426H37.4713C38.126 35.9355 38.7675 35.7569 39.3318 35.4249C39.8962 35.0928 40.3637 34.6187 40.688 34.0499C41.0122 33.481 41.1819 32.8372 41.1801 32.1824C41.1782 31.5276 41.005 30.8847 40.6775 30.3176L24.7963 3.80514C24.462 3.25409 23.9914 2.79849 23.4298 2.4823C22.8682 2.16611 22.2345 2 21.59 2C20.9455 2 20.3119 2.16611 19.7503 2.4823C19.1887 2.79849 18.718 3.25409 18.3838 3.80514Z" stroke="#276BF2" stroke-width="4" stroke-linecap="round" stroke-linejoin="round"/>
<path d="M21.5898 13.4429V20.9429" stroke="#276BF2" stroke-width="4" stroke-linecap="round" stroke-linejoin="round"/>
<path d="M21.5898 28.4429H21.6086" stroke="#276BF2" stroke-width="4" stroke-linecap="round" stroke-linejoin="round"/>
</svg>
