<?xml version="1.0" encoding="UTF-8"?>
<svg id="Outline" xmlns="http://www.w3.org/2000/svg" version="1.1" viewBox="0 0 512 512">
  <!-- Generator: Adobe Illustrator 29.3.1, SVG Export Plug-In . SVG Version: 2.1.0 Build 151)  -->
  <defs>
    <style>
      .st0 {
        fill: #276bf2;
      }
    </style>
  </defs>
  <path class="st0" d="M256,0C114.6,0,0,114.6,0,256s114.6,256,256,256,256-114.6,256-256C511.8,114.7,397.3.2,256,0ZM256,42.7c49.2,0,96.9,17,134.9,48.3L90.9,390.9C16.3,299.8,29.7,165.5,120.7,90.9c38.1-31.3,85.9-48.3,135.3-48.3ZM256,469.3c-49.2,0-96.9-17-134.9-48.3L421.1,121.1c74.6,91.1,61.3,225.4-29.8,300-38.1,31.3-85.9,48.3-135.3,48.3Z"/>
</svg>