<?xml version="1.0" encoding="UTF-8"?>
<svg id="Layer_1" xmlns="http://www.w3.org/2000/svg" version="1.1" viewBox="0 0 512 512">
  <!-- Generator: Adobe Illustrator 29.3.1, SVG Export Plug-In . SVG Version: 2.1.0 Build 151)  -->
  <defs>
    <style>
      .st0 {
        fill: #276bf2;
      }
    </style>
  </defs>
  <path class="st0" d="M480.7,156.2l30.5-29.9L388.6,1.1l-30.5,29.9,48.1,49.1-46.5,43.5-19.5-19.5c-25-25-65.5-25-90.5,0,0,0,0,0,0,0l-185.7,185.7v128L.9,480.9l30.2,30.2,63.1-63.1h128l185.7-185.7c25-25,25-65.5,0-90.5,0,0,0,0,0,0l-18-18,46.1-43.2,44.7,45.7ZM377.7,232.1l-173.2,173.2h-97.8v-79.2l40.9,40.9,30.2-30.2-50.2-50.2,33.8-33.8,50.2,50.2,30.2-30.2-50.2-50.2,33.8-33.8,50.2,50.2,30.2-30.2-50.2-50.2,24.4-24.4c8.3-8.3,21.8-8.3,30.2,0h0s67.6,67.7,67.6,67.7c8.3,8.3,8.3,21.8,0,30.2,0,0,0,0,0,0h0Z"/>
</svg>