<svg width="42" height="42" viewBox="0 0 42 42" fill="none" xmlns="http://www.w3.org/2000/svg">
<path d="M39.2902 29.9752V35.6002C39.2923 36.1224 39.1854 36.6392 38.9762 37.1177C38.767 37.5962 38.4602 38.0257 38.0754 38.3787C37.6906 38.7317 37.2363 39.0005 36.7416 39.1678C36.247 39.335 35.7228 39.3972 35.2027 39.3502C29.433 38.7233 23.8908 36.7517 19.0215 33.5939C14.4911 30.7152 10.6502 26.8743 7.77147 22.3439C4.60268 17.4524 2.63067 11.8833 2.01522 6.08768C1.96836 5.56918 2.02998 5.04661 2.19616 4.55323C2.36233 4.05985 2.62941 3.60647 2.98041 3.22197C3.3314 2.83747 3.7586 2.53026 4.23483 2.31991C4.71105 2.10956 5.22586 2.00067 5.74647 2.00018H11.3715C12.2814 1.99123 13.1636 2.31345 13.8535 2.90681C14.5435 3.50016 14.9941 4.32414 15.1215 5.22518C15.3589 7.02531 15.7992 8.79279 16.434 10.4939C16.6862 11.165 16.7408 11.8944 16.5913 12.5956C16.4418 13.2968 16.0943 13.9404 15.5902 14.4502L13.209 16.8314C15.8781 21.5256 19.7648 25.4123 24.459 28.0814L26.8402 25.7002C27.35 25.1961 27.9936 24.8486 28.6948 24.6991C29.396 24.5496 30.1254 24.6042 30.7965 24.8564C32.4976 25.4912 34.2651 25.9315 36.0652 26.1689C36.976 26.2974 37.8078 26.7562 38.4025 27.458C38.9971 28.1598 39.313 29.0556 39.2902 29.9752Z" stroke="#276BF2" stroke-width="4" stroke-linecap="round" stroke-linejoin="round"/>
</svg>
