<?xml version="1.0" encoding="UTF-8"?>
<svg id="Layer_1" xmlns="http://www.w3.org/2000/svg" version="1.1" viewBox="0 0 512 512">
  <!-- Generator: Adobe Illustrator 29.3.1, SVG Export Plug-In . SVG Version: 2.1.0 Build 151)  -->
  <defs>
    <style>
      .st0 {
        fill: #276bf2;
      }
    </style>
  </defs>
  <path class="st0" d="M490.7,469.3h-21.3V42.7h21.3c11.8,0,21.3-9.5,21.3-21.3S502.5,0,490.7,0H21.3C9.5,0,0,9.5,0,21.3s9.5,21.3,21.3,21.3h21.3v426.7h-21.3c-11.8,0-21.3,9.5-21.3,21.3s9.5,21.3,21.3,21.3h469.3c11.8,0,21.3-9.5,21.3-21.3s-9.5-21.3-21.3-21.3ZM85.3,42.7h341.3v426.7H85.3V42.7ZM380.8,333.9c-8.8-21.6-28.8-35.1-52.3-35.3h-51.2v-42.7h42.7c11.8,0,21.3-9.5,21.3-21.3s-9.5-21.3-21.3-21.3h-42.7v-42.7h85.3c11.8,0,21.3-9.5,21.3-21.3s-9.5-21.3-21.3-21.3h-85.3v-21.3c0-11.8-9.5-21.3-21.3-21.3s-21.3,9.5-21.3,21.3v21.3h-85.3c-11.8,0-21.3,9.5-21.3,21.3s9.5,21.3,21.3,21.3h85.3v42.7h-42.7c-11.8,0-21.3,9.5-21.3,21.3s9.5,21.3,21.3,21.3h42.7v42.7h-52.1c-23.2.2-43.1,13.6-51.8,35.1s-4.1,45,12.3,61.4l12.8,12.8c12.1,12.1,28.2,18.8,45.2,18.8h109.7c17.1,0,33.2-6.7,45.2-18.8l12.3-12.3c16.5-16.5,21.2-40.1,12.4-61.7h0ZM338.2,365.5l-12.3,12.3c-4,4-9.5,6.3-15.1,6.3h-109.7c-5.6,0-11.1-2.3-15.1-6.3l-12.8-12.8c-5.9-5.9-4.1-12.5-3-15,1-2.5,4.4-8.5,13.2-8.6h144.9c8.5,0,11.9,6.2,12.9,8.8,1.1,2.6,2.9,9.3-3.1,15.4h0Z"/>
</svg>